<?xml version="1.0" encoding="utf-8"?>
<!-- Generator: Adobe Illustrator 22.0.1, SVG Export Plug-In . SVG Version: 6.00 Build 0)  -->
<svg version="1.1" id="Слой_1" xmlns="http://www.w3.org/2000/svg" xmlns:xlink="http://www.w3.org/1999/xlink" x="0px" y="0px"
	 viewBox="0 0 221 449" style="enable-background:new 0 0 221 449;" xml:space="preserve">
<style type="text/css">
	.st0{fill:#FFFFFF;}
	.st1{fill:#FCAF25;}
</style>
<g id="XMLID_1_">
	<g>
		<path class="st0" d="M205.5,97h-189c2.5-33.3,8.1-60,16.1-76c0.8-1.5,1.3-1.8,2.5-2.3c2-0.9,6.2-1.7,14.9-1.7h122
			c8.7,0,12.9,0.8,14.9,1.7c1.2,0.5,1.8,0.9,2.5,2.4C197.4,37.1,203,63.7,205.5,97z"/>
		<path class="st1" d="M203.7,14.1c18.3,36.5,19.3,104,19.3,125c0,98-32,100.7-32,181.2c0,39.5,16,71.2,16,99.2c0,27-9,29.5-32,29.5
			H47c-23,0-32-2.5-32-29.5c0-28,16-59.9,16-99.4c0-80.5-32-82.8-32-180.8c0-21,1-88.8,19.3-125.2C22.8,5.2,30.8,1,50,1h122
			C191.3,1,199.2,5.2,203.7,14.1z M16.5,97h189c-2.5-33.3-8.1-59.9-16.1-75.9c-0.8-1.6-1.3-1.9-2.5-2.4c-2-0.9-6.2-1.7-14.9-1.7H50
			c-8.7,0-12.9,0.8-14.9,1.7c-1.2,0.5-1.8,0.8-2.5,2.3C24.6,37,19,63.7,16.5,97z"/>
	</g>
	<g>
	</g>
</g>
</svg>
