<svg id="Слой_1" data-name="Слой 1" xmlns="http://www.w3.org/2000/svg" viewBox="0 0 53.39 62.99"><defs><style>.cls-1{fill:#fff;}.cls-2{fill:none;stroke:#fff;stroke-miterlimit:10;}.cls-3{fill:#e8a756;}</style></defs><title>marketplace</title><path class="cls-1" d="M492.86,597.61c0.1,0.71.17,1.34,0.29,2a0.58,0.58,0,0,0,.42.26c0.69,0.09,1.39.15,2.08,0.21a2.7,2.7,0,0,1,2.61,2.41c0.38,2.92.71,5.84,1.06,8.76,0.28,2.29.54,4.59,0.83,6.89a5.13,5.13,0,0,1-1.53,4.46l-8.22,8.36-8.59,8.72c-1.19,1.21-2.39,2.41-3.57,3.64a2.25,2.25,0,0,1-3.58,0q-5.22-5.17-10.46-10.3l-9.05-8.9a2.13,2.13,0,0,1,0-3.1q4.07-4.16,8.15-8.29L475.86,600a4.92,4.92,0,0,1,4.15-1.52c2.57,0.24,5.14.52,7.71,0.78l1.07,0.09c-0.12-.7-0.19-1.32-0.34-1.93a0.6,0.6,0,0,0-.45-0.28c-2.42-.26-4.84-0.48-7.25-0.76a7.9,7.9,0,0,0-4.29.57,8.59,8.59,0,0,0-2.53,1.93l-8.22,8.36-8.6,8.76-3.46,3.52a4.25,4.25,0,0,0,0,6.16l12,11.75,7.58,7.48a4.37,4.37,0,0,0,6.62-.17c1.89-2,3.86-3.92,5.78-5.89l6.43-6.54c1.94-2,3.89-3.94,5.83-5.92A40.67,40.67,0,0,0,501,623a6.63,6.63,0,0,0,1.27-5.06c-0.41-3.22-.76-6.45-1.15-9.67-0.27-2.18-.47-4.36-0.86-6.52a4.89,4.89,0,0,0-4.17-3.81c-1-.14-2.09-0.21-3.26-0.33" transform="translate(-450.7 -584.63)"/><path class="cls-2" d="M492.86,597.61c0.1,0.71.17,1.34,0.29,2a0.58,0.58,0,0,0,.42.26c0.69,0.09,1.39.15,2.08,0.21a2.7,2.7,0,0,1,2.61,2.41c0.38,2.92.71,5.84,1.06,8.76,0.28,2.29.54,4.59,0.83,6.89a5.13,5.13,0,0,1-1.53,4.46l-8.22,8.36-8.59,8.72c-1.19,1.21-2.39,2.41-3.57,3.64a2.25,2.25,0,0,1-3.58,0q-5.22-5.17-10.46-10.3l-9.05-8.9a2.13,2.13,0,0,1,0-3.1q4.07-4.16,8.15-8.29L475.86,600a4.92,4.92,0,0,1,4.15-1.52c2.57,0.24,5.14.52,7.71,0.78l1.07,0.09c-0.12-.7-0.19-1.32-0.34-1.93a0.6,0.6,0,0,0-.45-0.28c-2.42-.26-4.84-0.48-7.25-0.76a7.9,7.9,0,0,0-4.29.57,8.59,8.59,0,0,0-2.53,1.93l-8.22,8.36-8.6,8.76-3.46,3.52a4.25,4.25,0,0,0,0,6.16l12,11.75,7.58,7.48a4.37,4.37,0,0,0,6.62-.17c1.89-2,3.86-3.92,5.78-5.89l6.43-6.54c1.94-2,3.89-3.94,5.83-5.92A40.67,40.67,0,0,0,501,623a6.63,6.63,0,0,0,1.27-5.06c-0.41-3.22-.76-6.45-1.15-9.67-0.27-2.18-.47-4.36-0.86-6.52a4.89,4.89,0,0,0-4.17-3.81c-1-.14-2.09-0.21-3.26-0.33" transform="translate(-450.7 -584.63)"/><path class="cls-1" d="M476.68,632.58l0.74-3.6,1.37-6.74q1.06-5.22,2.12-10.44a0.57,0.57,0,0,0-.13-0.44c-0.62-.65-1.26-1.27-2-2-0.08.27-.14,0.45-0.18,0.64q-1.69,8.37-3.38,16.73c-0.22,1.06-.42,2.13-0.64,3.2a0.72,0.72,0,0,0,.23.77c0.6,0.57,1.17,1.18,1.86,1.87" transform="translate(-450.7 -584.63)"/><path class="cls-2" d="M476.68,632.58l0.74-3.6,1.37-6.74q1.06-5.22,2.12-10.44a0.57,0.57,0,0,0-.13-0.44c-0.62-.65-1.26-1.27-2-2-0.08.27-.14,0.45-0.18,0.64q-1.69,8.37-3.38,16.73c-0.22,1.06-.42,2.13-0.64,3.2a0.72,0.72,0,0,0,.23.77c0.6,0.57,1.17,1.18,1.86,1.87" transform="translate(-450.7 -584.63)"/><path class="cls-1" d="M484.82,626.37a4.64,4.64,0,0,0,3.2-1.64,5.15,5.15,0,0,0,1.42-2.6,4.25,4.25,0,0,0-1.38-4,3.93,3.93,0,0,0-5.74-.14,5.55,5.55,0,0,0-2,3.12,4.25,4.25,0,0,0,1.69,4.18,4,4,0,0,0,2.77,1" transform="translate(-450.7 -584.63)"/><path class="cls-2" d="M484.82,626.37a4.64,4.64,0,0,0,3.2-1.64,5.15,5.15,0,0,0,1.42-2.6,4.25,4.25,0,0,0-1.38-4,3.93,3.93,0,0,0-5.74-.14,5.55,5.55,0,0,0-2,3.12,4.25,4.25,0,0,0,1.69,4.18,4,4,0,0,0,2.77,1" transform="translate(-450.7 -584.63)"/><path class="cls-1" d="M475.13,619.92a4.89,4.89,0,0,0-4.06-4.44,3.78,3.78,0,0,0-2.37.63,5.9,5.9,0,0,0-2.58,3.23,4.37,4.37,0,0,0,1.41,4.54c2.1,1.82,4.66,1.3,6.41-.84a4.56,4.56,0,0,0,1.18-3.12" transform="translate(-450.7 -584.63)"/><path class="cls-2" d="M475.13,619.92a4.89,4.89,0,0,0-4.06-4.44,3.78,3.78,0,0,0-2.37.63,5.9,5.9,0,0,0-2.58,3.23,4.37,4.37,0,0,0,1.41,4.54c2.1,1.82,4.66,1.3,6.41-.84a4.56,4.56,0,0,0,1.18-3.12" transform="translate(-450.7 -584.63)"/><path class="cls-1" d="M489.38,603.19a4,4,0,0,0-1.48,4.22,4.27,4.27,0,0,0,8.41-.76,4.16,4.16,0,0,0-2.7-4.16l0.2,1.36c0.11,0.76.25,1.51,0.34,2.27A2.1,2.1,0,0,1,490,607c-0.21-1-.36-2.11-0.54-3.16,0-.2-0.07-0.39-0.11-0.6" transform="translate(-450.7 -584.63)"/><path class="cls-2" d="M489.38,603.19a4,4,0,0,0-1.48,4.22,4.27,4.27,0,0,0,8.41-.76,4.16,4.16,0,0,0-2.7-4.16l0.2,1.36c0.11,0.76.25,1.51,0.34,2.27A2.1,2.1,0,0,1,490,607c-0.21-1-.36-2.11-0.54-3.16,0-.2-0.07-0.39-0.11-0.6" transform="translate(-450.7 -584.63)"/><path class="cls-3" d="M489.26,584.63A2.62,2.62,0,0,1,491,587.1c0.34,2.64.8,5.26,1.19,7.89a0.47,0.47,0,0,0,.5.48c1.31,0.13,2.63.24,3.93,0.47a6.93,6.93,0,0,1,4.36,3,8.82,8.82,0,0,1,1.35,4.5c0.48,4.09,1,8.17,1.47,12.26a14.31,14.31,0,0,1,.13,4.45,9,9,0,0,1-2.4,4.71q-5.39,5.5-10.79,11-4.92,5-9.85,10a6.18,6.18,0,0,1-3.4,1.7,2.48,2.48,0,0,0-.28.09h-1.3a8.09,8.09,0,0,1-4.93-2.9c-1.61-1.55-3.19-3.13-4.79-4.7l-4.68-4.6-4.82-4.73c-1.5-1.48-3-2.93-4.48-4.46a6.27,6.27,0,0,1-.42-7.63,43,43,0,0,1,3.13-3.37c1.73-1.79,3.49-3.55,5.23-5.32l5.16-5.25,5.27-5.36c1-1,1.9-2,2.94-2.94a8.89,8.89,0,0,1,7.08-2.16l6.79,0.71,0.52,0a3.3,3.3,0,0,0,0-.43q-0.52-3.42-1-6.84c-0.27-1.72,0-2.26,1.49-3h0.9m3.38,12.92c0.1,0.7.17,1.32,0.29,1.94a0.56,0.56,0,0,0,.41.26c0.68,0.09,1.37.15,2,.21a2.66,2.66,0,0,1,2.57,2.38c0.37,2.87.7,5.75,1,8.62,0.27,2.26.54,4.52,0.82,6.78a5.05,5.05,0,0,1-1.51,4.38l-8.09,8.22-8.45,8.58c-1.17,1.19-2.35,2.38-3.51,3.58a2.21,2.21,0,0,1-3.52,0q-5.13-5.08-10.3-10.14l-8.91-8.76a2.09,2.09,0,0,1,0-3.05q4-4.09,8-8.16l12.32-12.52a4.85,4.85,0,0,1,4.09-1.5c2.53,0.24,5.06.51,7.59,0.77l1.06,0.09c-0.11-.69-0.19-1.3-0.33-1.9a0.59,0.59,0,0,0-.44-0.28c-2.38-.26-4.76-0.48-7.14-0.75a7.78,7.78,0,0,0-4.22.56,8.45,8.45,0,0,0-2.49,1.9L465.94,607l-8.46,8.62-3.41,3.47a4.19,4.19,0,0,0,0,6.06l11.77,11.57,7.46,7.36a4.3,4.3,0,0,0,6.51-.17c1.86-2,3.79-3.86,5.69-5.79l6.32-6.44c1.91-1.94,3.83-3.87,5.73-5.82a40.25,40.25,0,0,0,3.11-3.33,6.53,6.53,0,0,0,1.25-5c-0.4-3.17-.75-6.35-1.13-9.52-0.26-2.14-.46-4.29-0.85-6.41a4.81,4.81,0,0,0-4.11-3.75c-1-.14-2.06-0.21-3.21-0.32M476.72,632l0.73-3.55,1.35-6.63q1-5.14,2.08-10.27a0.56,0.56,0,0,0-.13-0.43c-0.61-.64-1.24-1.25-2-2-0.08.27-.14,0.45-0.18,0.63Q477,618,475.29,626.23c-0.21,1-.41,2.1-0.63,3.15a0.71,0.71,0,0,0,.23.75c0.59,0.56,1.15,1.16,1.83,1.84m8-6.11a4.56,4.56,0,0,0,3.15-1.61,5.07,5.07,0,0,0,1.39-2.56,4.19,4.19,0,0,0-1.36-3.9,3.86,3.86,0,0,0-5.64-.14,5.46,5.46,0,0,0-1.94,3.07,4.18,4.18,0,0,0,1.66,4.11,3.9,3.9,0,0,0,2.73,1m-9.53-6.34a4.81,4.81,0,0,0-4-4.37,3.73,3.73,0,0,0-2.33.62,5.79,5.79,0,0,0-2.54,3.17,4.3,4.3,0,0,0,1.39,4.47c2.07,1.79,4.59,1.28,6.31-.83a4.49,4.49,0,0,0,1.17-3.07m14-16.47a3.88,3.88,0,0,0-1.45,4.15,4.2,4.2,0,0,0,8.27-.74,4.1,4.1,0,0,0-2.66-4.1l0.2,1.34c0.11,0.74.25,1.48,0.33,2.23a2.07,2.07,0,0,1-4,.82c-0.21-1-.36-2.07-0.53-3.11,0-.19-0.07-0.39-0.11-0.59" transform="translate(-450.7 -584.63)"/></svg>