<?xml version="1.0" encoding="utf-8"?>
<!-- Generator: Adobe Illustrator 22.0.1, SVG Export Plug-In . SVG Version: 6.00 Build 0)  -->
<svg version="1.1" id="Слой_1" xmlns="http://www.w3.org/2000/svg" xmlns:xlink="http://www.w3.org/1999/xlink" x="0px" y="0px"
	 viewBox="0 0 51.8 51" style="enable-background:new 0 0 51.8 51;" xml:space="preserve">
<style type="text/css">
	.st0{fill:#FFFFFF;}
	.st1{fill:#E8A756;}
</style>
<g>
	<g id="XMLID_1_">
		<g>
			<path class="st0" d="M16.9,23.2v8.1c-2.3,0.5-4.4,1.6-6,3.1V23.2H16.9z"/>
			<path class="st0" d="M16.9,17.1c1.9,1.1,3,3.1,3,5.2V31c-0.3,0-0.7,0-1,0.1v-8.8c0-0.6-0.5-1-1-1h-8c-0.6,0-1,0.4-1,1V35
				c-0.3,0-0.7,0.1-1,0.1V22.2c0-2.1,1.1-4.1,3-5.2c0.6-0.4,1-1,1-1.7V8.2h4v7.1C15.9,16,16.3,16.7,16.9,17.1z"/>
			<path class="st0" d="M44.9,14.2v-8c0-0.5-0.5-1-1-1s-1,0.5-1,1v8c0,1.7-1.3,3-3,3c-0.5,0-1,0.4-1,1c0,0.6,0.5,1,1,1
				C42.6,19.2,44.9,17,44.9,14.2z M45.9,4.2v10c0,3.3-2.7,6-6,6s-6-2.7-6-6v-10H45.9z"/>
			<path class="st0" d="M16.9,45c0.5,0,1-0.5,1-1c0-2.7-1.9-5-4.7-6.2c1.4-1.7,3.7-2.7,6.4-2.8c4.7,0.3,8.4,3.3,8.4,7
				c0,0.5,0.5,1,1,1s1-0.5,1-1c0-3.4-2.4-6.4-5.8-7.9c1.8-1.8,4.5-2.9,7.4-3c5.8,0.2,10.5,4.2,10.5,9c0,0.5,0.5,1,1,1s1-0.5,1-1
				c0-0.3,0-0.7-0.1-1c0,0,0.1,0,0.1,0c2.2,0,4,1.8,4,4c0,2.2-1.8,4-4,4h-34c-3.3,0-6-1.8-6-4c0-2.1,2.5-3.8,5.5-4
				c3.6,0.2,6.5,2.4,6.5,5C15.9,44.6,16.3,45,16.9,45z"/>
			<path class="st1" d="M44.9,14.2c0,2.8-2.2,5-5,5c-0.5,0-1-0.4-1-1c0-0.6,0.5-1,1-1c1.7,0,3-1.3,3-3v-8c0-0.5,0.5-1,1-1s1,0.5,1,1
				V14.2z"/>
			<path class="st1" d="M16.9,31.3v-8.1h-6v11.2C12.5,32.9,14.5,31.8,16.9,31.3z M18.9,31.1c0.3,0,0.7-0.1,1-0.1v-8.8
				c0-2.1-1.1-4.1-3-5.2c-0.6-0.4-1-1-1-1.7V8.2h-4v7.1c0,0.7-0.4,1.4-1,1.7c-1.9,1.1-3,3.1-3,5.2v12.9c0.3-0.1,0.7-0.1,1-0.1V22.2
				c0-0.6,0.4-1,1-1h8c0.5,0,1,0.4,1,1V31.1z M24.1,34.1c3.5,1.5,5.8,4.5,5.8,7.9c0,0.5-0.5,1-1,1s-1-0.5-1-1c0-3.7-3.7-6.7-8.4-7
				c-2.6,0.1-5,1.1-6.4,2.8c2.8,1.2,4.7,3.5,4.7,6.2c0,0.5-0.5,1-1,1s-1-0.5-1-1c0-2.6-2.9-4.8-6.5-5c-3,0.2-5.5,1.9-5.5,4
				c0,2.2,2.8,4,6,4h34c2.2,0,4-1.8,4-4c0-2.2-1.8-4-4-4c0,0,0,0-0.1,0c0,0.3,0.1,0.7,0.1,1c0,0.5-0.5,1-1,1s-1-0.5-1-1
				c0-4.8-4.6-8.8-10.5-9C28.5,31.1,25.9,32.2,24.1,34.1z M45.1,35.1c3.8,0.6,6.8,3.9,6.8,7.9c0,4.4-3.6,8-8,8h-34
				c-5.5,0-10-3.6-10-8c0-2.6,1.6-5,4-6.4c0-0.1,0-0.2,0-0.4v-14c0-3.2,1.5-6.1,4-8v-8c0-1.1,0.9-2,2-2h8c1.1,0,2,0.9,2,2v8
				c2.5,1.9,4,4.8,4,8v6.9c2.3-1.4,5.1-2.2,8-2.2c2.1,0,4.2,0.4,6,1.2V24c-4.6-0.9-8-5-8-9.8v-12c0-1.1,0.9-2,2-2h16
				c1.1,0,2,0.9,2,2v12c0,4.8-3.4,8.9-8,9.8v6.2c0,0.1,0,0.2,0,0.3C43.3,31.8,44.4,33.4,45.1,35.1z M45.9,14.2v-10h-12v10
				c0,3.3,2.7,6,6,6S45.9,17.6,45.9,14.2z"/>
		</g>
		<g>
		</g>
	</g>
</g>
</svg>
