<svg id="Слой_1" data-name="Слой 1" xmlns="http://www.w3.org/2000/svg" viewBox="0 0 65.18 62.71"><defs><style>.cls-1{fill:#e8a756;}.cls-1,.cls-2{fill-rule:evenodd;}.cls-2{fill:#fff;}</style></defs><title>scene</title><path class="cls-1" d="M1102.63,638.88c-0.06-2.34-.19-4.68-0.27-7q-0.49-13.83-1-27.66a5,5,0,0,0-.3-1.49c-1.28-3.54-7.58-16.7-8.27-17.32a1.12,1.12,0,0,0-1-.19c-7.39,2.1-14.76,4.23-22.16,6.3a2,2,0,0,0-1.47,1.38c-2,5.41-6.84,37.74-8.16,48.27a1.1,1.1,0,0,0,.88,1.38c3.36,1,21.85,4.42,27.74,5.12,1.3,0.15,2.62.15,4,.21h0s7.34-5.94,9.72-7.92a1.47,1.47,0,0,0,.34-1.06m-24.69-.58a12.11,12.11,0,0,1-14.51-12.18c0-8.27,7.06-15.47,15.13-15.43a12.07,12.07,0,0,1,12.13,12.49,15.79,15.79,0,0,1-12.75,15.13" transform="translate(-1037.46 -585.14)"/><path class="cls-1" d="M1039.46,603.06l22.22,10.13-0.06.15L1037.46,611l2-7.92" transform="translate(-1037.46 -585.14)"/><path class="cls-1" d="M1042.58,630.33c0.85-2.57,1.58-4.82,2.36-7.06a1.08,1.08,0,0,1,.67-0.59c4.7-1.05,9.41-2.08,14.12-3.1a2.85,2.85,0,0,1,.51.06l-17.66,10.69" transform="translate(-1037.46 -585.14)"/><path class="cls-1" d="M1061.73,607.41c-2.93-2.41-5.87-4.82-8.79-7.25a1.28,1.28,0,0,1-.41-1c0.24-1.43.58-2.84,0.95-4.55l8.37,12.66-0.13.14" transform="translate(-1037.46 -585.14)"/><path class="cls-2" d="M1078.57,610.69a12.07,12.07,0,0,1,12.13,12.49,15.79,15.79,0,0,1-12.75,15.13,12.11,12.11,0,0,1-14.51-12.18c0-8.27,7.06-15.47,15.13-15.43m-12.93,15a10.07,10.07,0,0,0,11.32,10.4c6.48-.58,11.66-6.55,11.53-13.29a10.1,10.1,0,0,0-10.71-9.95,13.11,13.11,0,0,0-12.13,12.84" transform="translate(-1037.46 -585.14)"/><path class="cls-2" d="M1074.39,593.6c2.42-3.18,7.47-2.8,10.05.56,3.36,4.38,1.07,11.23-4.2,12.59a6.26,6.26,0,0,1-7-3.11c-0.69-1.28-2.91-4.7,1.15-10m8.92,5.45a4.31,4.31,0,0,0-4-4.6,4.67,4.67,0,0,0-4.56,4.9,4.38,4.38,0,0,0,4.16,4.63,4.71,4.71,0,0,0,4.43-4.93" transform="translate(-1037.46 -585.14)"/><path class="cls-2" d="M1093.27,589.11a5.5,5.5,0,0,1,1.67,3.8c0.34,16,.74,32,1.12,47.94,0.06,2.64,0,2.64-2.79,4V589.11Z" transform="translate(-1037.46 -585.14)"/><path class="cls-1" d="M1065.64,625.68a13.11,13.11,0,0,1,12.13-12.84,10.1,10.1,0,0,1,10.71,9.95c0.14,6.74-5,12.72-11.53,13.29a10.07,10.07,0,0,1-11.32-10.4m12-8.52c-0.08,0-.45,0-0.8.1a8,8,0,0,0-6.35,5.12c-1.74,4.26.5,8.71,4.79,9.36a7.42,7.42,0,0,0,7.27-3.14,7.18,7.18,0,0,0,1.11-7.72c-1.08-2.41-3.09-3.62-6-3.71" transform="translate(-1037.46 -585.14)"/><path class="cls-1" d="M1083.32,599a4.71,4.71,0,0,1-4.43,4.92,4.38,4.38,0,0,1-4.16-4.62,4.67,4.67,0,0,1,4.55-4.9,4.31,4.31,0,0,1,4,4.6m-2.48-.14a2.41,2.41,0,0,0-2.2-2.54,2.6,2.6,0,0,0-2.42,2.61,2.34,2.34,0,0,0,2.15,2.45,2.49,2.49,0,0,0,2.47-2.52" transform="translate(-1037.46 -585.14)"/><path class="cls-2" d="M1077.6,617.16c2.93,0.1,4.94,1.3,6,3.71a7.18,7.18,0,0,1-1.11,7.72,7.43,7.43,0,0,1-7.27,3.14c-4.3-.65-6.53-5.1-4.79-9.36a8,8,0,0,1,6.35-5.12c0.36-.06.72-0.09,0.8-0.1m-0.55,2.81a4.2,4.2,0,0,0-4.17,4.08,3.28,3.28,0,0,0,3.23,3.44,4.22,4.22,0,0,0,4.21-4.17,3.14,3.14,0,0,0-3.27-3.35" transform="translate(-1037.46 -585.14)"/><path class="cls-2" d="M1080.83,598.91a2.49,2.49,0,0,1-2.47,2.52,2.35,2.35,0,0,1-2.15-2.45,2.6,2.6,0,0,1,2.42-2.61,2.41,2.41,0,0,1,2.2,2.54m-2.77,1.82a3.79,3.79,0,0,0,1.47-.7,5.08,5.08,0,0,0,.44-1.74l-1.91,2.43" transform="translate(-1037.46 -585.14)"/><path class="cls-1" d="M1077.06,620a3.14,3.14,0,0,1,3.27,3.35,4.22,4.22,0,0,1-4.21,4.17,3.28,3.28,0,0,1-3.23-3.44,4.2,4.2,0,0,1,4.17-4.08m-2.67,5.07a2.17,2.17,0,0,0,3.06,1,2.29,2.29,0,0,0,1.25-2.8c-1,1.95-2.07,2.41-4.31,1.81" transform="translate(-1037.46 -585.14)"/><path class="cls-1" d="M1078.06,600.73l1.91-2.43a5.08,5.08,0,0,1-.44,1.74,3.79,3.79,0,0,1-1.47.7" transform="translate(-1037.46 -585.14)"/><path class="cls-2" d="M1074.38,625c2.24,0.6,3.29.14,4.31-1.81a2.29,2.29,0,0,1-1.25,2.8,2.17,2.17,0,0,1-3.06-1" transform="translate(-1037.46 -585.14)"/><path class="cls-2" d="M1071.17,594.68a1.35,1.35,0,1,1-.89-2,1.56,1.56,0,0,1,.89,2" transform="translate(-1037.46 -585.14)"/><path class="cls-1" d="M1070.59,594.56a0.75,0.75,0,1,1-.49-1.09,0.86,0.86,0,0,1,.49,1.09" transform="translate(-1037.46 -585.14)"/><path class="cls-2" d="M1063.54,640.36a1.35,1.35,0,1,1-.89-2,1.56,1.56,0,0,1,.89,2" transform="translate(-1037.46 -585.14)"/><path class="cls-1" d="M1063,640.24a0.75,0.75,0,1,1-.49-1.09,0.86,0.86,0,0,1,.49,1.09" transform="translate(-1037.46 -585.14)"/><path class="cls-2" d="M1091.81,588.79a1.83,1.83,0,1,1-1.57-2.32,2,2,0,0,1,1.57,2.32" transform="translate(-1037.46 -585.14)"/><path class="cls-1" d="M1091,588.72a1,1,0,1,1-.87-1.28,1.1,1.1,0,0,1,.87,1.28" transform="translate(-1037.46 -585.14)"/><path class="cls-2" d="M1090.78,644.17a2.27,2.27,0,1,1-2-2.88,2.48,2.48,0,0,1,2,2.88" transform="translate(-1037.46 -585.14)"/><path class="cls-1" d="M1089.78,644.08a1.25,1.25,0,1,1-1.07-1.58,1.37,1.37,0,0,1,1.07,1.58" transform="translate(-1037.46 -585.14)"/></svg>