<svg id="Слой_1" data-name="Слой 1" xmlns="http://www.w3.org/2000/svg" viewBox="0 0 74.69 62.89"><defs><style>.cls-1{fill:#fff;}.cls-1,.cls-2{fill-rule:evenodd;}.cls-2{fill:#e8a756;}</style></defs><title>bloggers</title><path class="cls-1" d="M743.24,619.36a13.89,13.89,0,0,1,13.27-10.18c3.28,0,6.56,0,9.84,0,0.24,0,.47,0,0.76.06a13.07,13.07,0,0,0,4.1,8.92c-8.93,3.34-12.47,9.78-11.8,18.7-0.17,0-.26,0-0.35,0a67.47,67.47,0,0,1-15-2.69c-0.42-.12-0.84-0.22-1.26-0.32,0-4.19.29-13.86,0.46-14.51" transform="translate(-742.78 -585.46)"/><path class="cls-1" d="M817.46,633.64c-4.86,2.44-11.76,3.29-15.47,3.3,0-.24,0-0.48,0-0.72a26.48,26.48,0,0,0-.38-6,15.52,15.52,0,0,0-5.39-8.73,19.36,19.36,0,0,0-2.87-1.92c-1-.55-2.07-0.95-3.14-1.43,0.37-.42.78-0.86,1.15-1.32a12.57,12.57,0,0,0,2.85-7.07c0-.39.07-0.62,0.59-0.62,3.18,0,6.37,0,9.54.08a13.44,13.44,0,0,1,9.35,4.24,13.09,13.09,0,0,1,3.63,7.29c0,0.18.16,8.76,0.16,12.87" transform="translate(-742.78 -585.46)"/><path class="cls-1" d="M780.69,619.54c1.89,0,3.78-.08,5.66,0a13.29,13.29,0,0,1,8.37,3.58,13.71,13.71,0,0,1,4.28,7.4,15.76,15.76,0,0,1,.3,3.2c0,3.5,0,7,0,10.5a0.84,0.84,0,0,1-.58.89A36.79,36.79,0,0,1,787,648.08a57.53,57.53,0,0,1-19.8-1.6c-1.58-.39-3.14-0.88-4.71-1.3a0.53,0.53,0,0,1-.45-0.63c0-3.74-.08-7.48,0-11.21a14.07,14.07,0,0,1,14.31-13.86h4.35v0.06Z" transform="translate(-742.78 -585.46)"/><path class="cls-2" d="M780.69,596.84a10.94,10.94,0,1,1-11,10.86,10.87,10.87,0,0,1,11-10.86" transform="translate(-742.78 -585.46)"/><path class="cls-2" d="M762,607.37A11,11,0,0,1,751,599.58a10.85,10.85,0,0,1,4.7-12.38,10.92,10.92,0,0,1,16.7,9.4,1.11,1.11,0,0,1-.34.76,13.84,13.84,0,0,0-4.69,7.88,1.23,1.23,0,0,1-.51.71,9.86,9.86,0,0,1-4.8,1.43" transform="translate(-742.78 -585.46)"/><path class="cls-2" d="M798.66,585.52a11.05,11.05,0,0,1,10.89,8.8,11,11,0,0,1-15,12.24,0.86,0.86,0,0,1-.53-0.83,13,13,0,0,0-3.62-7.29,20.62,20.62,0,0,0-2.13-1.8,0.85,0.85,0,0,1-.43-0.82,10.77,10.77,0,0,1,5.07-8.58,10.51,10.51,0,0,1,5.7-1.71" transform="translate(-742.78 -585.46)"/></svg>